<svg width="38" height="43" viewBox="0 0 38 43" fill="none" xmlns="http://www.w3.org/2000/svg">
<path d="M0.917969 15.0386V1.71869C0.957305 0.404101 1.49141 0.0771681 2.87608 0H14.4072C18.8682 0.38371 21.4738 0.96833 26.1558 2.79287C44.4896 14.6554 38.6373 33.5484 27.2437 40.3893C22.1858 42.5629 19.3454 43.1554 14.4072 42.9673H2.87608C1.6481 42.8595 1.13893 42.5734 0.917969 41.2486V26.2101H11.1437V34.159H19.8464C24.3937 31.2426 27.8964 27.4991 28.5491 24.7062C29.2018 21.9133 29.2018 20.6243 28.5491 17.8314C27.8964 15.0386 24.8332 10.799 19.1937 9.4528H11.1437V12.2457L7.88014 15.0386H0.917969Z" fill="url(#paint0_linear_2504_5659)"/>
<defs>
<linearGradient id="paint0_linear_2504_5659" x1="19.418" y1="0" x2="19.418" y2="43" gradientUnits="userSpaceOnUse">
<stop offset="0.0865385" stop-color="#FE13F4"/>
<stop offset="0.475962" stop-color="#9600FD"/>
<stop offset="0.918269" stop-color="#4600C6"/>
</linearGradient>
</defs>
</svg>
